<svg width="16" height="14" viewBox="0 0 16 14" fill="none" xmlns="http://www.w3.org/2000/svg">
<path fill-rule="evenodd" clip-rule="evenodd" d="M1.80666 2.0266C1.54666 1.7666 1.54666 1.3466 1.80666 1.0866C2.06666 0.826602 2.49333 0.826602 2.75333 1.0866L13.6267 11.9733C13.8867 12.2333 13.8867 12.6533 13.6267 12.9133C13.3667 13.1733 12.9467 13.1733 12.6867 12.9133L10.8733 11.0999C9.98 11.4466 9.01333 11.6466 8 11.6466C4.66666 11.6466 1.82 9.57327 0.666664 6.6466C1.18 5.33327 2.04 4.19993 3.12 3.33993L1.80666 2.0266ZM11.3333 6.64662C11.3333 4.80662 9.84 3.31329 8 3.31329C7.66 3.31329 7.33333 3.37995 7.02 3.47329L5.57333 2.02662C6.34 1.77995 7.15333 1.64662 8 1.64662C11.3333 1.64662 14.18 3.71995 15.3333 6.63995C14.8733 7.81329 14.14 8.83995 13.2133 9.65995L11.1733 7.61995C11.2667 7.31329 11.3333 6.98662 11.3333 6.64662ZM8 9.97992C6.16 9.97992 4.66666 8.48658 4.66666 6.64658C4.66666 6.13325 4.78666 5.64658 4.99333 5.21992L6.04 6.26658C6.02 6.38658 6 6.51325 6 6.64658C6 7.75325 6.89333 8.64658 8 8.64658C8.13333 8.64658 8.25333 8.62658 8.38 8.59992L9.42666 9.64658C8.99333 9.85992 8.51333 9.97992 8 9.97992ZM9.98 6.42661C9.88 5.49328 9.14666 4.76661 8.22 4.66661L9.98 6.42661Z" fill="#9C9C9C"/>
</svg>
