<svg width="24" height="24" viewBox="0 0 24 24" fill="none" xmlns="http://www.w3.org/2000/svg">
<path fill-rule="evenodd" clip-rule="evenodd" d="M2.99991 3.01001H20.9999C22.0999 3.01001 22.9999 3.91001 22.9999 5.01001V18.99C22.9999 20.09 22.0999 20.99 20.9999 20.99H2.97991C1.88991 20.99 0.999908 20.1 0.999908 19.01V16C0.999908 15.45 1.44991 15 1.99991 15C2.54991 15 2.99991 15.45 2.99991 16V18.02C2.99991 18.57 3.44991 19.02 3.99991 19.02H19.9999C20.5499 19.02 20.9999 18.57 20.9999 18.02V5.99001C20.9999 5.44001 20.5499 4.99001 19.9999 4.99001H3.99991C3.44991 4.99001 2.99991 5.44001 2.99991 5.99001V8.00001C2.99991 8.55001 2.54991 9.00001 1.99991 9.00001C1.44991 9.00001 0.999908 8.55001 0.999908 8.00001V5.01001C0.999908 3.91001 1.89991 3.01001 2.99991 3.01001ZM14.6399 12.3601L11.8499 15.1501C11.5399 15.4601 10.9999 15.2401 10.9999 14.7901V13.0001H1.99991C1.44991 13.0001 0.999908 12.5501 0.999908 12.0001C0.999908 11.4501 1.44991 11.0001 1.99991 11.0001H10.9999V9.21005C10.9999 8.76005 11.5399 8.54005 11.8499 8.86005L14.6399 11.6501C14.8399 11.8501 14.8399 12.1601 14.6399 12.3601Z" fill="#FF768E"/>
</svg>
