<svg width="24" height="24" viewBox="0 0 24 24" fill="none" xmlns="http://www.w3.org/2000/svg">
<path fill-rule="evenodd" clip-rule="evenodd" d="M10.9898 8C10.9898 9.66 9.6598 11 7.9998 11C6.3398 11 4.9998 9.66 4.9998 8C4.9998 6.34 6.3398 5 7.9998 5C9.6598 5 10.9898 6.34 10.9898 8ZM18.9899 8C18.9899 9.66 17.6599 11 15.9999 11C14.3399 11 12.9999 9.66 12.9999 8C12.9999 6.34 14.3399 5 15.9999 5C17.6599 5 18.9899 6.34 18.9899 8ZM7.99988 13C5.66988 13 0.999878 14.17 0.999878 16.5V18C0.999878 18.55 1.44988 19 1.99988 19H13.9999C14.5499 19 14.9999 18.55 14.9999 18V16.5C14.9999 14.17 10.3299 13 7.99988 13ZM15.03 13.05C15.38 13.02 15.71 13 16 13C18.33 13 23 14.17 23 16.5V18C23 18.55 22.55 19 22 19H16.82C16.93 18.69 17 18.35 17 18V16.5C17 15.03 16.21 13.92 15.07 13.09C15.0669 13.0869 15.0639 13.083 15.0606 13.0787C15.053 13.0688 15.0439 13.0569 15.03 13.05Z" fill="#9C9C9C"/>
</svg>
